<svg id="Layer_1" data-name="Layer 1" xmlns="http://www.w3.org/2000/svg" viewBox="0 0 264.94 125.42"><defs><style>.cls-1{fill:#141211;}.cls-2{fill:#f06800;}</style></defs><title>logo_malarianomore</title><path class="cls-1" d="M.06,16.74h12v7h.15c2.63-5.48,7.9-7.9,13.89-7.9,5.4,0,9.9,2.36,11.9,7.33,3.07-5.12,8.12-7.31,13.53-7.31,11,0,13.45,6.21,13.45,16.52V54.83H51.82V34.36c0-4.32-1.54-7.53-5.26-7.53-4.68,0-7.46,3.73-7.46,11.92V54.83H25.94V34.36c0-4.32-1.53-7.53-5.26-7.53-4.68,0-7.46,3.73-7.46,11.92V54.83H.06Z" transform="translate(-0.06)"/><path class="cls-1" d="M95.47,54.83c-.07-2-.29-4-.29-6H95c-3,4.75-6.65,6.87-12.06,6.87-7.53,0-14.25-3.73-14.25-12,0-11.62,12.64-13,19.66-13a38.66,38.66,0,0,1,6.14.51c-.07-5.19-3.95-6.58-8.7-6.58a24.76,24.76,0,0,0-12.13,2.85l-.22-8.92a39.34,39.34,0,0,1,15.21-2.71c9.72,0,18.13,4.17,18.13,15.79v14.2a46.58,46.58,0,0,0,.73,9Zm-9.07-7.9c5,0,8.11-4.53,8.11-9-1.68-.07-3.58-.22-5.56-.22-4.46,0-8,1.39-8,5C81,45.4,83.33,46.93,86.4,46.93Z" transform="translate(-0.06)"/><path class="cls-1" d="M114.11,0h13.16V54.83H114.11Z" transform="translate(-0.06)"/><path class="cls-1" d="M159.29,54.83c-.07-2-.29-4-.29-6h-.15c-3,4.75-6.65,6.87-12.06,6.87-7.53,0-14.26-3.73-14.26-12,0-11.62,12.65-13,19.67-13a38.69,38.69,0,0,1,6.14.51c-.07-5.19-3.95-6.58-8.7-6.58a24.76,24.76,0,0,0-12.14,2.85l-.22-8.92a39.36,39.36,0,0,1,15.21-2.71c9.72,0,18.13,4.17,18.13,15.79v14.2a46.64,46.64,0,0,0,.73,9Zm-9.06-7.89c5,0,8.11-4.53,8.11-9-1.68-.07-3.58-.22-5.55-.22-4.46,0-8,1.39-8,5,0,2.68,2.36,4.21,5.44,4.21Z" transform="translate(-0.06)"/><path class="cls-1" d="M203.59,27.27a15.15,15.15,0,0,0-4.46-.44c-6.14,0-9.58,4.46-9.58,11.92V54.83H176.4V16.74h12v7h.15c2.27-4.83,5.56-7.9,11.26-7.9a28.07,28.07,0,0,1,4.46.44Z" transform="translate(-0.06)"/><path class="cls-1" d="M220.92,10.53H207.76V.88h13.16Zm-13.16,6.22h13.16V54.83H207.76Z" transform="translate(-0.06)"/><path class="cls-1" d="M252.94,54.83c-.07-2-.29-4-.29-6h-.15c-3,4.75-6.65,6.87-12.06,6.87-7.53,0-14.26-3.73-14.26-12,0-11.62,12.65-13,19.67-13a38.69,38.69,0,0,1,6.14.51c-.07-5.19-3.95-6.58-8.7-6.58a24.76,24.76,0,0,0-12.14,2.85l-.22-8.92a39.35,39.35,0,0,1,15.21-2.71c9.73,0,18.13,4.17,18.13,15.79v14.2a46.87,46.87,0,0,0,.73,9Zm-9.06-7.89c5,0,8.12-4.53,8.12-9-1.68-.07-3.58-.22-5.56-.22-4.46,0-8,1.39-8,5,0,2.68,2.37,4.21,5.43,4.21Z" transform="translate(-0.06)"/><path class="cls-2" d="M65.8,78.49q-4.52,0-6.88,4.54T56.55,96q0,8.53,2.35,13t6.9,4.48q9.28,0,9.28-17.49T65.8,78.49Z" transform="translate(-0.06)"/><path class="cls-2" d="M162.31,78.49q-4.52,0-6.88,4.54t-2.36,13q0,8.53,2.35,13t6.9,4.48q9.28,0,9.28-17.49T162.31,78.49Z" transform="translate(-0.06)"/><path class="cls-2" d="M211.23,86.28q0-7-8.56-7H196.4V93.66h6.16a9.21,9.21,0,0,0,6.27-2.1A6.7,6.7,0,0,0,211.23,86.28Z" transform="translate(-0.06)"/><path class="cls-2" d="M1,63.65v61.77H264.15V63.65ZM33.93,117H28.51l-15-33.13V117H8.59V75H14l15.11,32.83V75H33.9Zm42.64-4.79a12.08,12.08,0,0,1-10.76,5.59,12.08,12.08,0,0,1-10.72-5.58q-3.7-5.58-3.7-16.19T55.07,79.8A12.07,12.07,0,0,1,65.8,74.21a12.11,12.11,0,0,1,10.75,5.58q3.7,5.58,3.7,16.22t-3.68,16.17ZM134.71,117H130V81l-6.33,17.22h-4.61L112.73,81v36H108V75h6.34l7,19.12,7-19.12h6.34Zm38.36-4.79a13.13,13.13,0,0,1-21.49,0q-3.7-5.58-3.7-16.19t3.69-16.21a13.13,13.13,0,0,1,21.49,0q3.7,5.58,3.7,16.22t-3.68,16.15Zm41,4.79L201.81,97.91H196.4V117h-4.88V75h11.87q6,0,9.44,2.9a10,10,0,0,1,3.46,8.1,10.26,10.26,0,0,1-2.53,6.82,12.71,12.71,0,0,1-7,4.06L220.21,117ZM256,117H234.11V75h21.74v4.25H239v13h16.21V96.5H239v16.21h17Z" transform="translate(-0.06)"/></svg>